<svg width="634" height="190" viewBox="0 0 634 190" fill="none" xmlns="http://www.w3.org/2000/svg">
<path d="M268.183 126.114C268.183 131.885 265.976 134.091 260.545 134.091H241.364V114.402H260.545C265.976 114.402 268.183 117.118 268.183 122.38V126.114ZM260.545 101.502H220.487V113.553L227.616 114.572V162.777H241.364V146.991H260.545C276.33 146.991 281.762 139.013 281.762 126.623V121.87C281.762 110.159 276.67 101.502 260.545 101.502V101.502ZM556.395 101.502H561.487V162.777H547.738V119.323L519.392 162.777H503.607V101.502H517.355V143.436L538.063 111.347C543.325 103.199 547.908 101.502 556.395 101.502V101.502ZM168.378 26.6487H205.89V34.2865C205.89 40.3972 205.381 45.4888 204.022 50.0719H192.311V39.5483H168.378C161.249 39.5483 159.551 41.4157 159.551 49.2236V65.3481C159.551 73.156 161.249 75.0234 168.378 75.0234H205.89V87.923H168.378C150.896 87.923 145.803 82.8314 145.803 65.3481V49.2236C145.803 31.5708 150.896 26.6487 168.378 26.6487V26.6487ZM547.738 26.6487H561.487V87.923H547.738V63.3112H517.355V87.923H503.607V26.6487H517.355V50.4116H547.738V26.6487ZM185.352 149.877H161.588V137.995H185.352C189.935 137.995 191.632 140.202 191.632 143.766C191.632 147.33 189.935 149.877 185.352 149.877ZM188.916 119.834C188.916 123.568 187.05 125.604 182.296 125.604H161.588V114.572H182.296C187.05 114.572 188.916 116.269 188.916 119.834V119.834ZM196.765 130.396C199.987 128.43 202.665 124.25 202.665 117.797C202.665 109.479 197.912 101.502 183.824 101.502H147.84V162.777H185.182C198.761 162.777 205.381 155.818 205.381 144.445C205.381 136.798 200.989 132.291 196.765 130.396V130.396ZM454.043 101.502H491.895V109.14C491.895 115.251 491.386 120.343 490.027 124.926H478.316V114.402H454.043C446.915 114.402 445.218 116.269 445.218 124.077V140.202C445.218 148.01 446.915 149.877 454.043 149.877H491.895V162.777H454.043C436.561 162.777 431.469 157.685 431.469 140.202V124.077C431.469 106.424 436.561 101.502 454.043 101.502V101.502ZM338.114 140.202C338.114 148.01 336.416 149.877 329.288 149.877H312.993C305.864 149.877 304.167 148.01 304.167 140.202V124.077C304.167 116.269 305.864 114.402 312.993 114.402H329.288C336.416 114.402 338.114 116.269 338.114 124.077V140.202ZM329.288 101.502H312.993C295.51 101.502 290.418 106.424 290.418 124.077V140.202C290.418 157.685 295.51 162.777 312.993 162.777H329.288C346.941 162.777 351.863 157.685 351.863 140.202V124.077C351.863 106.424 346.941 101.502 329.288 101.502ZM238.001 39.5483H262.243V73.156H232.834C234.714 69.8724 235.506 65.2947 236.103 59.4075L238.001 39.5483ZM275.99 26.6487H225.919L222.864 57.7103C221.336 72.4773 219.129 74.8532 215.055 74.8532H214.207V93.694H227.277L227.786 85.8861H268.183L268.692 93.694H281.762V74.6837H275.99V26.6487ZM384.112 101.502H421.794V109.14C421.794 115.251 421.285 120.343 419.927 124.926H408.215V114.402H384.112C376.983 114.402 375.286 116.269 375.286 124.077V140.202C375.286 148.01 376.983 149.877 384.112 149.877H421.794V162.777H384.112C366.63 162.777 361.537 157.685 361.537 140.202V124.077C361.537 106.424 366.63 101.502 384.112 101.502V101.502ZM619.536 65.3481C619.536 73.156 617.839 75.0234 610.71 75.0234H595.604C588.474 75.0234 586.777 73.156 586.777 65.3481V49.2236C586.777 41.4157 588.474 39.5483 595.604 39.5483H610.71C617.839 39.5483 619.536 41.4157 619.536 49.2236V65.3481ZM610.71 26.6487H595.604C578.12 26.6487 573.029 31.5708 573.029 49.2236V65.3481C573.029 82.8314 579.818 87.923 597.301 87.923H609.013C626.665 87.923 633.285 82.8314 633.285 65.3481V49.2236C633.285 31.5708 628.363 26.6487 610.71 26.6487ZM291.437 65.3481V49.2236C291.437 31.5708 296.359 26.6487 314.012 26.6487H349.995V39.5483H313.332C306.204 39.5483 305.185 40.7363 305.185 48.5442V50.5811H339.981V63.3112H305.185V66.0275C305.185 73.8354 306.204 75.0234 313.332 75.0234H350.505V87.923H314.012C296.359 87.923 291.437 82.8314 291.437 65.3481V65.3481ZM455.402 39.5483H476.958V54.655H446.575V49.2236C446.575 42.2646 447.424 39.5483 455.402 39.5483ZM446.575 67.385H476.958V87.923H490.707V26.6487H455.402C438.089 26.6487 432.827 31.4013 432.827 49.2236V87.923H446.575V67.385ZM80.964 101.502H94.7125V162.777H50.7513C33.0982 162.777 26.4789 156.157 26.4789 138.505V101.502H40.2272V138.844C40.2272 146.652 43.2826 149.877 50.4116 149.877H80.964V101.502ZM13.2391 13.2393H107.952V176.186H13.2391V13.2393ZM0 189.425H121.192V2.90107e-06H0V189.425ZM358.822 87.923V74.8532C364.423 74.8532 365.781 71.4588 366.969 60.0863L370.704 26.6487H419.927V87.923H406.179V39.5483H382.471L380.039 62.9721C378.002 83.1704 372.57 88.6024 358.822 87.923V87.923ZM627.174 101.502H632.266V162.777H618.518V119.323L590.172 162.777H574.387V101.502H588.135V143.436L608.843 111.347C614.105 103.199 618.688 101.502 627.174 101.502ZM74.1752 53.467H40.2272V39.5483H74.1752C79.2661 39.5483 81.6427 42.2646 81.6427 46.3378C81.6427 50.4116 79.6058 53.467 74.1752 53.467V53.467ZM95.3919 44.8101C95.3919 34.6262 90.4698 26.6487 76.0412 26.6487H26.4789V87.923H40.2272V66.3665H71.968C79.0972 66.3665 80.964 68.4034 80.964 75.5326V87.923H94.7125V73.3255C94.7125 66.0448 92.1296 61.7735 86.3926 60.3205C92.3612 58.303 95.3919 52.5319 95.3919 44.8101" fill="black" fill-opacity="0.38"/>
</svg>
