<svg width="275" height="71" viewBox="0 0 275 71" fill="none" xmlns="http://www.w3.org/2000/svg">
<path d="M38.7052 70.5357C31.4732 70.5357 24.9772 69.0317 19.2172 66.0237C13.4572 63.0157 8.94516 58.8557 5.68116 53.5437C2.41716 48.1677 0.785156 42.1197 0.785156 35.3997C0.785156 28.6797 2.41716 22.6637 5.68116 17.3517C8.94516 11.9757 13.4572 7.78367 19.2172 4.77567C24.9772 1.76767 31.4732 0.263672 38.7052 0.263672C45.9372 0.263672 52.4332 1.76767 58.1932 4.77567C63.9532 7.78367 68.4652 11.9757 71.7292 17.3517C74.9932 22.6637 76.6252 28.6797 76.6252 35.3997C76.6252 42.1197 74.9932 48.1677 71.7292 53.5437C68.4652 58.8557 63.9532 63.0157 58.1932 66.0237C52.4332 69.0317 45.9372 70.5357 38.7052 70.5357ZM38.7052 52.1997C41.5212 52.1997 44.0492 51.5277 46.2892 50.1837C48.5932 48.7757 50.4172 46.8237 51.7612 44.3277C53.1052 41.7677 53.7772 38.7917 53.7772 35.3997C53.7772 32.0077 53.1052 29.0637 51.7612 26.5677C50.4172 24.0077 48.5932 22.0557 46.2892 20.7117C44.0492 19.3037 41.5212 18.5997 38.7052 18.5997C35.8892 18.5997 33.3292 19.3037 31.0252 20.7117C28.7852 22.0557 26.9932 24.0077 25.6492 26.5677C24.3052 29.0637 23.6332 32.0077 23.6332 35.3997C23.6332 38.7917 24.3052 41.7677 25.6492 44.3277C26.9932 46.8237 28.7852 48.7757 31.0252 50.1837C33.3292 51.5277 35.8892 52.1997 38.7052 52.1997ZM84.8482 1.79967H107.504V51.4317H137.84V68.9997H84.8482V1.79967ZM199.97 51.9117V68.9997H144.098V1.79967H198.722V18.8877H166.37V26.7597H194.786V43.0797H166.37V51.9117H199.97ZM253.14 33.5757H272.82V61.9917C268.852 64.7437 264.244 66.8557 258.996 68.3277C253.748 69.7997 248.596 70.5357 243.54 70.5357C236.372 70.5357 229.94 69.0637 224.244 66.1197C218.548 63.1117 214.068 58.9517 210.804 53.6397C207.604 48.2637 206.004 42.1837 206.004 35.3997C206.004 28.6157 207.604 22.5677 210.804 17.2557C214.068 11.8797 218.58 7.71967 224.34 4.77567C230.164 1.76767 236.724 0.263672 244.02 0.263672C250.612 0.263672 256.5 1.38367 261.684 3.62366C266.932 5.79967 271.284 8.99967 274.74 13.2237L260.244 25.9917C256.02 21.0637 250.996 18.5997 245.172 18.5997C240.18 18.5997 236.212 20.1037 233.268 23.1117C230.324 26.1197 228.852 30.2157 228.852 35.3997C228.852 40.4557 230.292 44.5197 233.172 47.5917C236.116 50.6637 240.02 52.1997 244.884 52.1997C247.764 52.1997 250.516 51.6557 253.14 50.5677V33.5757Z" fill="black" fill-opacity="0.38"/>
</svg>
